<svg xmlns="http://www.w3.org/2000/svg" width="260.001" height="198.984" viewBox="0 0 260.001 198.984"><defs><style>.a{fill:#fff;}</style></defs><g transform="translate(-24.849 -71.081)"><path class="a" d="M278.467,241.357a5.073,5.073,0,0,0,1.043-2.982,5.248,5.248,0,0,0-5.247-5.346H119.346c-8.363-.377-15.3-4.093-20.617-11.047a38.5,38.5,0,0,1-5.645-10.51,6.651,6.651,0,0,1-.238-.9L73.067,107.631C71.8,99.588,68.543,93.657,63.4,90a20.724,20.724,0,0,0-14.27-3.576H30.1a5.248,5.248,0,0,0-5.247,5.347,5.362,5.362,0,0,0,5.421,5.15H49.508a4.007,4.007,0,0,0,.912-.079,10.658,10.658,0,0,1,5.446.874c3.6,1.665,5.9,5.576,6.845,11.622.01.06.02.122.032.181L82.664,213.217c.026.136.057.27.094.4a47.581,47.581,0,0,0,7.373,14.4c6.212,8.283,14.447,13.394,24.016,14.991a19.02,19.02,0,1,0,29,.517H251.1a19.023,19.023,0,1,0,27.363-2.169Zm-150.04,22.726a8.526,8.526,0,1,1,8.526-8.526A8.536,8.536,0,0,1,128.427,264.083Zm137.4,0a8.526,8.526,0,1,1,8.526-8.526A8.536,8.536,0,0,1,265.827,264.083Z" transform="translate(0 -4.515)"/><path class="a" d="M300.573,144.987a5,5,0,0,1-2.972-.976L217.643,84.017a4.122,4.122,0,0,0-4.78-.122c-34.979,23.6-84.9,58.682-87.919,60.916a5.091,5.091,0,0,1-8.136-2.651,4.721,4.721,0,0,1,1.369-4.774c.51-.5,2.583-3.539,48.954-34.812,22.543-15.2,45.258-30.484,45.485-30.636a5.029,5.029,0,0,1,5.784.119L303.554,135.9a5.029,5.029,0,0,1-2.981,9.083Zm-175.279-.495h0Zm.008-.007-.006,0Z" transform="translate(-27.251)"/><path class="a" d="M301.875,187.826a3.846,3.846,0,0,0-2.855-1.3,1.891,1.891,0,1,0,0,3.737,3.848,3.848,0,0,0,2.855-1.3Zm-.612,38.547a3.448,3.448,0,0,0-2.558-1.163,1.694,1.694,0,1,0,0,3.349,3.448,3.448,0,0,0,2.558-1.163Zm-12.511-14.325a.73.73,0,0,1,.233-.884,19.512,19.512,0,0,1,10.092-2.651c8.046,0,11.767,4.232,11.767,13.488v12.046a.715.715,0,0,1-.7.7h-5.86a.758.758,0,0,1-.745-.7l-.326-1.256c-1.535,1.628-4.6,2.651-8,2.651-5.348,0-8.883-3.442-8.836-8.558.046-4.558,3.581-7.581,8.836-7.581,2.7,0,5.117.977,6.047,2.466v-1.954a3.254,3.254,0,0,0-3.581-3.3A12.187,12.187,0,0,0,292.1,218c-.233.139-.511-.046-.7-.372Zm-.839-40.209a.813.813,0,0,1,.259-.986,21.768,21.768,0,0,1,11.263-2.959c8.979,0,13.132,4.724,13.132,15.053v13.443a.8.8,0,0,1-.778.779h-6.54a.846.846,0,0,1-.83-.779l-.363-1.4c-1.713,1.817-5.139,2.958-8.928,2.958-5.969,0-9.914-3.841-9.861-9.55.051-5.086,4-8.461,9.861-8.461,3.01,0,5.709,1.09,6.748,2.751v-2.179c0-2.232-1.609-3.685-4-3.685a13.61,13.61,0,0,0-6.229,1.661c-.259.156-.57-.051-.778-.415Zm-20.974,54.813a.385.385,0,0,1,.6-.186,11.677,11.677,0,0,0,5.349,1.907c.977.093,1.628-.465,1.628-1.163,0-2.372-10.186-1.628-10.186-10.371,0-4.977,4.232-8.325,10.558-8.325a18.257,18.257,0,0,1,9.116,2.651c.233.186.372.419.279.651l-2.372,5.488a.385.385,0,0,1-.6.186,10.691,10.691,0,0,0-5.349-1.907c-.977-.093-1.628.372-1.628,1.116,0,2.465,10.185,1.582,10.185,10.418,0,4.977-4.092,8.325-10.278,8.325a19.73,19.73,0,0,1-9.395-2.651.714.714,0,0,1-.279-.744Zm4.728-46.975a4.377,4.377,0,0,0-4.1-2.854c-2.855,0-4.775,2.388-4.775,6.021,0,3.737,1.92,6.228,4.775,6.228a4.377,4.377,0,0,0,4.1-2.854Zm9.913-20.139a.791.791,0,0,1,.779.727v36.125a.8.8,0,0,1-.779.779h-5.865c-.364,0-.624-.311-.831-.779l-.778-1.868a12.35,12.35,0,0,1-8.773,3.425c-8.2,0-13.7-6.021-13.7-15.052,0-8.98,5.5-15,13.7-15a10.351,10.351,0,0,1,6.333,1.972v-9.6a.791.791,0,0,1,.778-.727Zm-29.43,66.836a3.448,3.448,0,0,0-2.558-1.163,1.694,1.694,0,1,0,0,3.349,3.448,3.448,0,0,0,2.558-1.163Zm-12.511-14.325a.73.73,0,0,1,.233-.884,19.514,19.514,0,0,1,10.092-2.651c8.046,0,11.767,4.232,11.767,13.488v12.046a.715.715,0,0,1-.7.7h-5.86a.758.758,0,0,1-.745-.7l-.326-1.256c-1.535,1.628-4.6,2.651-8,2.651-5.348,0-8.883-3.442-8.836-8.558.046-4.558,3.581-7.581,8.836-7.581,2.7,0,5.117.977,6.047,2.466v-1.954a3.254,3.254,0,0,0-3.581-3.3A12.187,12.187,0,0,0,242.986,218c-.232.139-.511-.046-.7-.372Zm12.932-77.484a.757.757,0,0,1,.739.739v25.647a.75.75,0,0,1-.739.69h-5.562c-.394,0-.64-.344-.787-.739l-.738-1.772a10.653,10.653,0,0,1-7.877,3.249c-6.4,0-10.19-4.086-10.19-10.781V135.3a.757.757,0,0,1,.738-.739h8.664a.757.757,0,0,1,.738.739v15.063a2.562,2.562,0,0,0,2.609,2.806,3.908,3.908,0,0,0,3-1.576V135.3a.758.758,0,0,1,.739-.739ZM229.778,170.8c1.661-1.817,5.191-2.906,8.356-2.906,7.059,0,10.9,3.27,10.9,11.367v17.128a.8.8,0,0,1-.778.779h-9.135a.721.721,0,0,1-.726-.779V180.871c0-2.077-.935-3.27-2.544-3.27a3.48,3.48,0,0,0-3.426,2.907v15.882a.8.8,0,0,1-.779.779h-9.135a.8.8,0,0,1-.778-.779V169.347a.657.657,0,0,1,.727-.726h5.813a.843.843,0,0,1,.83.519Zm5.581,61.107c.14.326-.046.651-.418.837a19.223,19.223,0,0,1-9.767,2.7c-9.581,0-16-6.7-16-16.743s6.418-16.743,16-16.743a19.224,19.224,0,0,1,9.767,2.7c.372.186.558.512.418.837l-3.069,6.465a.6.6,0,0,1-.884.372,10.309,10.309,0,0,0-5.4-1.3c-4.186,0-6.976,3.07-6.976,7.674s2.79,7.674,6.976,7.674a10.309,10.309,0,0,0,5.4-1.3.6.6,0,0,1,.884.372Zm-61.587-70.553a.679.679,0,0,1,.727.726l-.779,7.889a.881.881,0,0,1-.83.727h-7.734v25.744a.743.743,0,0,1-.727.727h-9.187a.791.791,0,0,1-.779-.727V170.7h-8.616a.743.743,0,0,1-.727-.727v-7.837a.791.791,0,0,1,.727-.778Zm13.7,1.194c0,3.062-2.283,5.139-5.71,5.139s-5.709-2.076-5.709-5.139c0-3.218,2.283-5.347,5.709-5.347S187.475,159.33,187.475,162.548Zm-1.09,6.073a.79.79,0,0,1,.778.726v27.042a.8.8,0,0,1-.778.779H177.25a.8.8,0,0,1-.779-.779V169.347a.791.791,0,0,1,.779-.726Zm30.1,25.64c.1.363,0,.571-.363.779a20.208,20.208,0,0,1-10.744,2.906c-9.187,0-15.311-6.021-15.311-15,0-9.032,6.021-15.053,15.053-15.053,8.616,0,13.7,5.554,13.7,15a11.817,11.817,0,0,1-.207,2.335.676.676,0,0,1-.779.623H201.178s0,3.271,4.36,3.271a19.668,19.668,0,0,0,7.941-1.713.556.556,0,0,1,.778.416ZM208.5,180.4c0-2.284-1.4-3.789-3.477-3.789a3.625,3.625,0,0,0-3.893,3.789ZM171.642,232.14c.093.325,0,.511-.325.7a18.107,18.107,0,0,1-9.627,2.6c-8.233,0-13.72-5.4-13.72-13.441,0-8.093,5.4-13.488,13.488-13.488,7.721,0,12.279,4.977,12.279,13.441a10.588,10.588,0,0,1-.186,2.093.606.606,0,0,1-.7.558h-14.93s0,2.93,3.907,2.93A17.609,17.609,0,0,0,168.945,226a.5.5,0,0,1,.7.373Zm-7.163-12.418a3.084,3.084,0,0,0-3.116-3.395,3.248,3.248,0,0,0-3.488,3.395Zm19.068-8.6c1.488-1.628,4.651-2.6,7.488-2.6,6.325,0,9.767,2.93,9.767,10.186v15.348a.715.715,0,0,1-.7.7H191.92a.647.647,0,0,1-.651-.7V220.141c0-1.86-.837-2.93-2.279-2.93a3.119,3.119,0,0,0-3.07,2.6v14.232a.715.715,0,0,1-.7.7h-8.185a.716.716,0,0,1-.7-.7V209.816a.589.589,0,0,1,.651-.652h5.21a.755.755,0,0,1,.744.465Zm41.7-83.446a.644.644,0,0,1,.689.69l-.738,7.482a.835.835,0,0,1-.788.689h-7.335v24.416a.7.7,0,0,1-.689.69h-8.713a.75.75,0,0,1-.738-.69V136.533h-8.171a.7.7,0,0,1-.69-.689v-7.433a.75.75,0,0,1,.69-.739Z" transform="translate(-35.717 -16.806)"/></g></svg>